<svg xmlns="http://www.w3.org/2000/svg" height="40px" viewBox="0 -960 960 960" width="40px" fill="#000000"><path d="M202.57-140q-25.79 0-44.18-18.39T140-202.57v-554.86q0-25.79 18.39-44.18T202.57-820h369.51l-50.26 50.26H202.57q-4.62 0-8.47 3.84-3.84 3.85-3.84 8.47v554.86q0 4.62 3.84 8.47 3.85 3.84 8.47 3.84h554.86q4.62 0 8.47-3.84 3.84-3.85 3.84-8.47v-322.87L820-575.69v373.12q0 25.79-18.39 44.18T757.43-140H202.57ZM480-480ZM380-380v-137.31l369.82-369.82q7.57-7.56 16.82-10.88 9.26-3.32 18.9-3.32 9.46 0 18.73 3.52 9.27 3.53 16.88 10.97l63.36 63.2q7.61 7.79 11.52 17.26 3.92 9.48 3.92 19.2 0 9.72-3.48 19.11-3.48 9.39-11.19 17.15L515.38-380H380Zm469.9-406.72-63.77-65.18 63.77 65.18ZM430.26-430.26h64.05l259.46-259.46-32.1-31.95-33.72-32.46-257.69 257.28v66.59Zm291.41-291.41-33.72-32.46 33.72 32.46 32.1 31.95-32.1-31.95Z"/></svg>