<svg id="svg" version="1.1" xmlns="http://www.w3.org/2000/svg" xmlns:xlink="http://www.w3.org/1999/xlink" width="400" height="400" viewBox="0, 0, 400,400"><g id="svgg"><path id="path0" d="M202.400 80.400 L 202.400 160.800 198.700 160.796 C 191.067 160.789,179.560 158.898,172.000 156.409 C 168.100 155.124,163.368 153.336,160.000 151.874 C 159.230 151.539,157.790 150.946,156.800 150.556 C 137.955 143.124,114.427 125.409,97.360 105.800 C 86.945 93.834,71.983 73.320,64.400 60.610 C 56.411 47.219,52.318 42.794,49.215 44.193 C 47.835 44.815,44.333 48.894,43.364 51.007 C 42.772 52.297,43.126 354.551,43.720 355.335 C 44.452 356.301,56.861 356.432,58.644 355.493 C 60.416 354.559,61.771 350.318,63.594 340.000 C 63.847 338.570,64.234 336.590,64.455 335.600 C 64.675 334.610,65.035 332.990,65.253 332.000 C 68.066 319.255,74.342 300.372,79.812 288.200 C 80.306 287.100,81.112 285.300,81.602 284.200 C 86.117 274.074,94.787 259.115,101.423 250.000 C 129.538 211.388,162.176 190.380,196.300 188.933 L 202.400 188.675 202.400 294.337 L 202.400 400.000 301.200 400.000 L 400.000 400.000 400.000 200.000 L 400.000 0.000 301.200 0.000 L 202.400 0.000 202.400 80.400 M352.512 45.083 C 352.958 45.477,354.401 47.240,355.717 49.000 L 358.110 52.200 357.829 198.400 C 357.541 348.782,357.488 354.287,356.335 355.438 C 355.605 356.166,345.971 356.437,342.491 355.827 C 340.018 355.393,339.715 354.628,337.956 344.400 C 337.037 339.058,336.544 336.431,336.041 334.200 C 335.843 333.320,335.487 331.700,335.250 330.600 C 334.508 327.148,332.660 320.266,331.009 314.800 C 327.929 304.602,322.296 290.482,316.487 278.400 C 313.765 272.737,305.739 259.148,302.784 255.200 C 302.208 254.430,300.590 252.180,299.188 250.200 C 275.982 217.424,245.292 195.675,214.484 190.172 C 211.490 189.637,208.222 189.198,207.221 189.196 C 206.219 189.193,204.725 189.080,203.900 188.943 L 202.400 188.695 202.400 174.808 L 202.400 160.920 207.670 160.439 C 229.883 158.410,252.732 149.027,272.392 133.863 C 287.742 122.023,297.662 112.434,309.448 98.039 C 310.962 96.191,312.830 93.920,313.600 92.993 C 315.179 91.092,318.184 87.158,321.232 83.000 C 323.531 79.865,328.792 71.945,338.000 57.761 C 347.055 43.811,349.073 42.048,352.512 45.083 M61.491 88.609 C 62.169 89.495,66.581 95.721,71.296 102.447 L 79.868 114.675 80.134 128.603 C 80.280 136.263,80.400 166.936,80.400 196.765 L 80.400 251.000 78.398 254.124 C 74.240 260.613,69.426 269.444,66.798 275.400 C 66.313 276.500,65.666 277.940,65.361 278.600 C 65.056 279.260,63.680 282.590,62.302 286.000 C 57.649 297.518,57.832 298.232,58.153 269.843 C 58.298 257.059,58.501 213.390,58.605 172.800 C 58.778 105.017,58.958 87.578,59.494 86.665 C 59.711 86.295,59.736 86.319,61.491 88.609 M340.160 87.700 C 339.731 88.195,338.833 89.320,338.164 90.200 C 337.495 91.080,336.054 92.970,334.961 94.400 C 332.638 97.439,326.212 106.526,323.426 110.712 C 320.495 115.116,320.681 110.443,320.517 184.028 L 320.367 251.055 324.586 258.149 C 328.466 264.672,333.545 274.427,335.338 278.800 C 335.744 279.790,336.316 281.140,336.609 281.800 C 336.902 282.460,337.444 283.900,337.812 285.000 C 339.407 289.760,341.728 294.144,342.120 293.140 C 342.526 292.101,342.167 101.466,341.742 92.300 C 341.472 86.495,341.396 86.273,340.160 87.700 M101.333 138.356 C 106.448 143.330,111.392 147.568,116.900 151.700 L 121.200 154.925 121.200 165.991 C 121.200 180.882,120.503 197.262,119.799 198.920 C 119.185 200.365,109.771 211.133,98.849 222.884 C 97.886 223.920,96.840 225.135,96.526 225.584 C 95.051 227.690,94.795 226.725,95.015 219.900 C 95.518 204.300,96.000 174.916,96.002 159.800 C 96.004 142.409,96.285 134.400,96.894 134.400 C 97.099 134.400,99.096 136.180,101.333 138.356 M299.992 137.900 C 293.534 143.700,286.956 149.341,285.443 150.377 C 284.979 150.694,284.510 151.055,284.400 151.178 C 284.290 151.301,283.165 152.188,281.900 153.150 C 280.635 154.111,279.580 155.100,279.557 155.349 C 279.322 157.783,279.724 189.555,280.028 192.600 C 280.748 199.824,281.797 201.785,288.796 209.000 C 291.357 211.640,294.430 214.880,295.626 216.200 C 296.822 217.520,297.891 218.690,298.002 218.800 C 298.113 218.910,299.620 220.575,301.351 222.500 C 303.082 224.425,304.632 226.000,304.795 226.000 C 305.131 226.000,304.909 147.651,304.551 140.100 C 304.269 134.138,304.211 134.110,299.992 137.900 M143.583 168.685 C 155.512 174.596,155.534 174.642,148.400 178.868 C 146.530 179.976,143.679 181.765,142.065 182.843 C 139.271 184.708,137.401 185.534,136.962 185.096 C 136.018 184.151,135.812 172.056,136.659 167.300 C 136.977 165.516,137.333 165.587,143.583 168.685 M260.391 166.942 C 259.615 167.194,255.974 169.005,252.297 170.967 C 244.707 175.019,244.855 174.681,249.535 177.245 C 251.221 178.169,254.710 180.337,257.288 182.062 C 264.201 186.689,264.000 186.860,264.000 176.374 C 264.000 169.022,263.946 168.439,263.171 167.454 C 262.252 166.286,262.353 166.304,260.391 166.942 " stroke="none" fill="#040404" fill-rule="evenodd"></path><path id="path1" d="M0.000 200.000 L 0.000 400.000 101.200 400.000 L 202.400 400.000 202.400 294.413 L 202.400 188.825 205.700 189.046 C 238.592 191.253,273.723 214.234,299.188 250.200 C 300.590 252.180,302.208 254.430,302.784 255.200 C 305.739 259.148,313.765 272.737,316.487 278.400 C 323.044 292.038,329.042 307.446,332.059 318.400 C 332.272 319.170,332.603 320.340,332.795 321.000 C 333.456 323.269,334.821 328.603,335.250 330.600 C 335.487 331.700,335.843 333.320,336.041 334.200 C 336.544 336.431,337.037 339.058,337.956 344.400 C 339.715 354.628,340.018 355.393,342.491 355.827 C 345.971 356.437,355.605 356.166,356.335 355.438 C 357.488 354.287,357.541 348.776,357.826 198.400 L 358.104 52.200 356.203 49.600 C 349.780 40.813,348.670 41.310,338.000 57.756 C 328.855 71.850,323.542 79.850,321.232 83.000 C 318.184 87.158,315.179 91.092,313.600 92.993 C 312.830 93.920,310.962 96.191,309.448 98.039 C 297.662 112.434,287.742 122.023,272.392 133.863 C 257.833 145.093,239.639 154.001,223.197 157.949 C 217.450 159.330,207.216 160.800,203.358 160.800 L 202.400 160.800 202.400 80.400 L 202.400 0.000 101.200 0.000 L 0.000 0.000 0.000 200.000 M52.390 44.450 C 54.650 45.828,59.371 52.181,64.400 60.610 C 71.983 73.320,86.945 93.834,97.360 105.800 C 114.427 125.409,137.955 143.124,156.800 150.556 C 157.790 150.946,159.230 151.539,160.000 151.874 C 173.238 157.622,186.955 160.785,198.700 160.796 L 202.400 160.800 202.400 174.737 L 202.400 188.675 196.300 188.933 C 162.176 190.380,129.538 211.388,101.423 250.000 C 94.787 259.115,86.117 274.074,81.602 284.200 C 81.112 285.300,80.306 287.100,79.812 288.200 C 74.325 300.412,68.176 318.918,65.225 332.100 C 64.270 336.369,64.033 337.515,63.594 340.000 C 61.771 350.318,60.416 354.559,58.644 355.493 C 56.861 356.432,44.452 356.301,43.720 355.335 C 43.125 354.550,42.772 52.299,43.365 51.000 C 44.169 49.240,47.732 44.959,48.928 44.317 C 50.569 43.435,50.735 43.442,52.390 44.450 M59.494 86.665 C 58.958 87.578,58.778 105.017,58.605 172.800 C 58.501 213.390,58.298 257.059,58.153 269.843 C 57.832 298.232,57.649 297.518,62.302 286.000 C 63.680 282.590,65.056 279.260,65.361 278.600 C 65.666 277.940,66.313 276.500,66.798 275.400 C 69.426 269.444,74.240 260.613,78.398 254.124 L 80.400 251.000 80.400 196.765 C 80.400 166.936,80.280 136.263,80.134 128.603 L 79.868 114.675 71.296 102.447 C 63.824 91.789,61.114 88.011,59.974 86.665 C 59.818 86.481,59.602 86.481,59.494 86.665 M341.742 92.300 C 342.167 101.466,342.526 292.101,342.120 293.140 C 341.728 294.144,339.407 289.760,337.812 285.000 C 337.444 283.900,336.902 282.460,336.609 281.800 C 336.316 281.140,335.744 279.790,335.338 278.800 C 333.545 274.427,328.466 264.672,324.586 258.149 L 320.367 251.055 320.517 184.028 C 320.681 110.443,320.495 115.116,323.426 110.712 C 326.212 106.526,332.638 97.439,334.961 94.400 C 336.054 92.970,337.495 91.080,338.164 90.200 C 341.541 85.756,341.435 85.694,341.742 92.300 M96.263 138.900 C 96.120 141.375,96.003 150.780,96.002 159.800 C 96.000 174.916,95.518 204.300,95.015 219.900 C 94.795 226.725,95.051 227.690,96.526 225.584 C 96.840 225.135,97.886 223.920,98.849 222.884 C 109.771 211.133,119.185 200.365,119.799 198.920 C 120.503 197.262,121.200 180.882,121.200 165.991 L 121.200 154.925 116.900 151.700 C 111.392 147.568,106.448 143.330,101.333 138.356 C 96.328 133.488,96.576 133.461,96.263 138.900 M304.551 140.100 C 304.909 147.651,305.131 226.000,304.795 226.000 C 304.632 226.000,303.082 224.425,301.351 222.500 C 299.620 220.575,298.113 218.910,298.002 218.800 C 297.891 218.690,296.822 217.520,295.626 216.200 C 294.430 214.880,291.357 211.640,288.796 209.000 C 281.797 201.785,280.748 199.824,280.028 192.600 C 279.724 189.555,279.322 157.783,279.557 155.349 C 279.580 155.100,280.635 154.111,281.900 153.150 C 283.165 152.188,284.290 151.301,284.400 151.178 C 284.510 151.055,284.979 150.694,285.443 150.377 C 286.956 149.341,293.534 143.700,299.992 137.900 C 304.211 134.110,304.269 134.138,304.551 140.100 M136.659 167.300 C 135.812 172.056,136.018 184.151,136.962 185.096 C 137.401 185.534,139.271 184.708,142.065 182.843 C 143.679 181.765,146.530 179.976,148.400 178.868 C 155.534 174.642,155.512 174.596,143.583 168.685 C 137.333 165.587,136.977 165.516,136.659 167.300 M263.171 167.454 C 263.946 168.439,264.000 169.022,264.000 176.374 C 264.000 186.860,264.201 186.689,257.288 182.062 C 254.710 180.337,251.221 178.169,249.535 177.245 C 247.849 176.322,246.277 175.334,246.042 175.050 C 245.449 174.336,259.369 166.860,262.071 166.442 C 262.220 166.419,262.715 166.874,263.171 167.454 " stroke="none" fill="#ffffff" fill-rule="evenodd"></path></g></svg>