<?xml version="1.0" encoding="utf-8" ?>	<!-- Generator: Assembly 2.4 - http://assemblyapp.co -->	<svg version="1.1" xmlns="http://www.w3.org/2000/svg" xmlns:xlink="http://www.w3.org/1999/xlink" width="512.00" height="512.00" viewBox="0 0 512.0 512.0">		<g id="document" transform="scale(0.125 0.125) translate(2048.0 2048.0)">			<g>				<path d="M2072.38,1.26408 L2072.38,2048.3 L1036.58,2048.3 L0.775614,2048.3 L0.775614,967.599 L0.775614,-113.114 L0.775614,-399.955 L0.775614,-1222.86 L0.775614,-2045.77 L1036.58,-2045.77 L2072.38,-2045.77 L2072.38,1.26408 Z M1536.16,-1590.82 C1513.02,-1576.71 1464.7,-1511.69 1413.23,-1425.42 C1335.62,-1295.33 1182.48,-1085.36 1075.88,-962.89 C901.195,-762.189 660.382,-580.872 467.5,-504.804 C457.367,-500.813 442.629,-494.743 434.747,-491.315 C299.254,-432.483 158.858,-400.109 38.6458,-399.996 L0.775614,-399.955 L0.775614,-257.307 L0.775614,-114.649 L63.2101,-112.009 C412.476,-97.1983 746.532,117.822 1034.29,513.023 C1102.21,606.317 1190.95,759.425 1237.17,863.067 C1242.18,874.325 1250.43,892.749 1255.49,904.008 C1311.65,1029 1374.58,1218.41 1404.79,1353.33 C1414.56,1397.03 1416.99,1408.76 1421.48,1434.19 C1440.14,1539.8 1454.01,1583.2 1472.14,1592.76 C1490.39,1602.37 1617.4,1601.03 1624.89,1591.15 C1630.98,1583.11 1634.6,-1510.48 1628.53,-1523.78 C1620.3,-1541.79 1583.83,-1585.61 1571.59,-1592.18 C1554.79,-1601.21 1553.09,-1601.14 1536.16,-1590.82 Z M1463.44,-1158.74 C1468.93,-1149.4 1470.77,-970.905 1472.54,-277.133 C1473.61,138.313 1475.69,585.273 1477.17,716.12 C1480.46,1006.69 1482.33,999.379 1434.7,881.49 C1420.6,846.588 1406.52,812.505 1403.4,805.75 C1400.27,798.994 1393.65,784.256 1388.69,772.997 C1361.79,712.036 1312.52,621.649 1269.96,555.233 L1249.47,523.259 L1249.47,-31.8467 C1249.47,-337.152 1250.7,-651.096 1252.19,-729.497 L1254.91,-872.053 L1342.65,-997.209 C1419.13,-1106.3 1446.86,-1144.96 1458.53,-1158.74 C1460.13,-1160.62 1462.34,-1160.62 1463.44,-1158.74 Z M1087.11,-624.106 C1088.57,-598.774 1089.77,-502.512 1089.78,-410.19 C1089.8,-255.475 1094.73,45.2754 1099.88,204.944 C1102.13,274.799 1099.51,284.676 1084.42,263.121 C1081.2,258.525 1070.5,246.09 1060.64,235.486 C948.85,115.212 852.496,4.99998 846.212,-9.78993 C839.006,-26.7599 831.873,-194.412 831.873,-346.824 L831.873,-460.087 L875.884,-493.095 C932.259,-535.387 982.862,-578.764 1035.21,-629.674 C1086.44,-679.499 1083.9,-679.775 1087.11,-624.106 Z M673.647,-333.426 C682.316,-284.748 680.208,-160.953 670.546,-151.281 C666.052,-146.798 646.913,-155.252 618.315,-174.341 C601.796,-185.375 572.615,-203.685 553.476,-215.026 C480.458,-258.28 480.683,-258.751 602.779,-319.251 C666.748,-350.959 670.392,-351.686 673.647,-333.426 Z " fill="#000000" fill-opacity="1.00" />				<path d="M-1534.6,-1590.82 C-1511.47,-1576.71 -1463.15,-1511.69 -1411.68,-1425.42 C-1334.07,-1295.33 -1180.93,-1085.36 -1074.33,-962.89 C-899.644,-762.189 -658.831,-580.872 -465.949,-504.804 C-455.816,-500.813 -441.077,-494.743 -433.196,-491.315 C-297.703,-432.483 -157.307,-400.109 -37.0945,-399.996 L0.775614,-399.955 L0.775614,-114.649 L-61.6589,-112.009 C-410.924,-97.1983 -744.98,117.822 -1032.74,513.023 C-1100.66,606.317 -1189.4,759.425 -1235.61,863.067 C-1240.63,874.325 -1248.88,892.749 -1253.94,904.008 C-1310.1,1029 -1373.03,1218.41 -1403.24,1353.33 C-1413.01,1397.03 -1415.44,1408.76 -1419.93,1434.19 C-1438.59,1539.8 -1452.46,1583.2 -1470.59,1592.76 C-1488.84,1602.37 -1615.85,1601.03 -1623.34,1591.15 C-1629.43,1583.11 -1633.05,-1510.48 -1626.98,-1523.78 C-1618.75,-1541.79 -1582.28,-1585.61 -1570.04,-1592.18 C-1553.24,-1601.21 -1551.54,-1601.14 -1534.6,-1590.82 Z M-1461.89,-1158.74 C-1467.38,-1149.4 -1469.22,-970.905 -1470.99,-277.133 C-1472.06,138.313 -1474.13,585.273 -1475.62,716.12 C-1478.9,1006.69 -1480.78,999.379 -1433.15,881.49 C-1419.05,846.588 -1404.97,812.505 -1401.84,805.75 C-1398.72,798.994 -1392.1,784.256 -1387.14,772.997 C-1360.24,712.036 -1310.97,621.649 -1268.41,555.233 L-1247.92,523.259 L-1247.92,-31.8467 C-1247.92,-337.152 -1249.15,-651.096 -1250.64,-729.497 L-1253.36,-872.053 L-1341.1,-997.209 C-1417.58,-1106.3 -1445.31,-1144.96 -1456.98,-1158.74 C-1458.58,-1160.62 -1460.79,-1160.62 -1461.89,-1158.74 Z M-1085.56,-624.106 C-1087.02,-598.774 -1088.22,-502.512 -1088.23,-410.19 C-1088.25,-255.475 -1093.18,45.2754 -1098.33,204.944 C-1100.58,274.799 -1097.96,284.676 -1082.86,263.121 C-1079.65,258.525 -1068.94,246.09 -1059.09,235.486 C-947.299,115.212 -850.945,4.99998 -844.661,-9.78993 C-837.455,-26.7599 -830.321,-194.412 -830.321,-346.824 L-830.321,-460.087 L-874.333,-493.095 C-930.708,-535.387 -981.311,-578.764 -1033.66,-629.674 C-1084.89,-679.499 -1082.35,-679.775 -1085.56,-624.106 Z M-672.096,-333.426 C-680.765,-284.748 -678.656,-160.953 -668.994,-151.281 C-664.501,-146.798 -645.361,-155.252 -616.764,-174.341 C-600.245,-185.375 -571.064,-203.685 -551.924,-215.026 C-478.907,-258.28 -479.132,-258.751 -601.227,-319.251 C-665.197,-350.959 -668.841,-351.686 -672.096,-333.426 Z " fill="#000000" fill-opacity="1.00" />			</g>		</g>	</svg>