<svg xmlns="http://www.w3.org/2000/svg" height="40px" viewBox="0 -960 960 960" width="40px" fill="#000000"><path d="M194.87-140q-25.61 0-44.08-18.48-18.48-18.48-18.48-44.09v-554.86q0-25.61 18.48-44.09Q169.26-820 194.87-820h371.64v50.26H194.87q-5.38 0-8.84 3.46-3.47 3.46-3.47 8.85v554.86q0 5.39 3.47 8.85 3.46 3.46 8.84 3.46h554.87q5.39 0 8.85-3.46t3.46-8.85v-370.97h50.26v370.97q0 25.61-18.48 44.09Q775.35-140 749.74-140H194.87Zm502.57-484.05v-80.67h-80.41v-50.25h80.41v-80.41h50.25v80.41h80.41v50.25h-80.41v80.67h-50.25ZM262.31-291.08h423.07L556.82-462.41 441.13-312.87l-81.9-104.21-96.92 126Zm-79.75-478.66V-190.26v-579.48Z"/></svg>