<?xml version="1.0" standalone="no"?>
<!DOCTYPE svg PUBLIC "-//W3C//DTD SVG 20010904//EN"
 "http://www.w3.org/TR/2001/REC-SVG-20010904/DTD/svg10.dtd">
<svg version="1.0" xmlns="http://www.w3.org/2000/svg"
 width="700.000000pt" height="700.000000pt" viewBox="0 0 700.000000 700.000000"
 preserveAspectRatio="xMidYMid meet">
<metadata>
Created by potrace 1.14, written by Peter Selinger 2001-2017
</metadata>
<g transform="translate(0.000000,700.000000) scale(0.100000,-0.100000)"
fill="#000000" stroke="none">
<path d="M3540 5595 l0 -1405 36 0 c20 0 84 7 143 16 497 73 938 312 1393 753
244 236 423 461 703 883 112 169 220 325 241 347 62 69 105 54 188 -67 l29
-42 -9 -2632 c-8 -2094 -12 -2638 -22 -2655 -12 -22 -19 -23 -137 -23 -158 0
-155 -3 -184 156 -77 422 -157 687 -316 1051 -249 567 -667 1081 -1127 1390
-267 178 -584 297 -855 319 l-83 7 0 -1847 0 -1846 1730 0 1730 0 0 3500 0
3500 -1730 0 -1730 0 0 -1405z"/>
<path d="M816 6179 c-26 -28 -49 -61 -51 -73 -9 -36 -1 -5314 8 -5323 12 -12
186 -16 227 -6 48 12 66 53 102 232 98 495 259 935 482 1321 251 433 600 820
952 1056 189 126 439 235 644 278 41 9 139 22 218 28 l142 12 0 237 0 236
-102 7 c-219 15 -372 51 -603 143 -256 102 -408 188 -635 359 -257 195 -438
376 -665 669 -156 200 -272 366 -411 587 -114 179 -204 288 -241 288 -13 0
-39 -20 -67 -51z m430 -966 l151 -213 6 -188 c4 -103 7 -640 7 -1195 l0 -1007
-74 -123 c-94 -156 -150 -268 -227 -454 -70 -169 -80 -187 -90 -152 -8 32 8
3544 17 3583 l7 31 26 -34 c14 -19 94 -130 177 -248z m561 -662 c58 -55 153
-135 209 -178 l103 -78 0 -280 c0 -154 -4 -328 -8 -387 l-9 -108 -55 -67 c-30
-38 -102 -119 -159 -182 -56 -63 -128 -143 -158 -177 -30 -34 -59 -59 -63 -55
-5 5 -4 251 2 547 6 297 11 643 11 770 0 207 5 294 16 294 2 0 52 -45 111 -99z
m758 -529 c150 -78 150 -81 -15 -184 -68 -43 -132 -78 -141 -78 -13 0 -20 12
-25 46 -8 54 -1 265 9 281 10 16 36 6 172 -65z"/>
<path d="M5944 5448 c-88 -98 -302 -410 -315 -460 -8 -30 -13 -383 -16 -1210
l-5 -1166 85 -149 c111 -194 148 -269 214 -432 30 -75 58 -140 63 -145 5 -5
12 8 16 30 9 50 -5 3492 -14 3528 l-7 27 -21 -23z"/>
<path d="M5209 4548 c-51 -46 -143 -124 -204 -174 l-110 -90 3 -325 c4 -334 9
-404 38 -466 17 -35 115 -147 298 -338 l95 -100 0 750 c1 714 -2 825 -19 825
-4 0 -50 -37 -101 -82z"/>
<path d="M4454 4025 c-111 -57 -151 -82 -143 -89 2 -2 67 -42 144 -90 96 -59
143 -82 150 -75 13 13 19 224 8 269 -6 24 -16 36 -30 38 -11 2 -69 -22 -129
-53z"/>
</g>
</svg>
